<svg xmlns="http://www.w3.org/2000/svg" fill="none" viewBox="0 0 35 26">
  <path fill="#236AF2" d="M0 0h35v26H0z"/>
  <path fill="#fff" d="M23.997 8.076a2 2 0 0 1 1.144-.336c.425.003.833.128 1.136.35.304.22.48.52.491.837s-.143.623-.43.856L17.61 17.89a1.7 1.7 0 0 1-.533.284 2.15 2.15 0 0 1-1.284.018 1.8 1.8 0 0 1-.546-.27L9.46 13.625a1.3 1.3 0 0 1-.38-.396.96.96 0 0 1-.142-.474.95.95 0 0 1 .12-.478c.082-.152.204-.29.36-.405s.342-.207.546-.269a2.15 2.15 0 0 1 1.282.017c.201.067.383.163.533.283l4.58 3.4 7.598-7.19.043-.036z"/>
</svg>
