<svg xmlns="http://www.w3.org/2000/svg" fill="none" viewBox="0 0 35 28">
  <path fill="#236AF2" d="M0 0h35v28H0z"/>
  <path fill="#fff" d="M23.997 8.698a1.88 1.88 0 0 1 1.144-.362 1.87 1.87 0 0 1 1.136.375c.304.239.48.562.491.902s-.143.671-.43.922l-8.728 8.732c-.15.13-.332.234-.533.306a2 2 0 0 1-1.284.019 1.7 1.7 0 0 1-.546-.29l-5.788-4.63a1.4 1.4 0 0 1-.38-.426 1.1 1.1 0 0 1-.142-.511 1.1 1.1 0 0 1 .12-.515c.082-.163.204-.312.36-.436a1.7 1.7 0 0 1 .546-.29 2 2 0 0 1 1.282.019c.201.072.383.175.533.304l4.58 3.663 7.598-7.744.043-.038z"/>
</svg>
