<svg xmlns="http://www.w3.org/2000/svg" fill="none" viewBox="0 0 35 27">
  <path fill="#236AF2" d="M0 0h35v27H0z"/>
  <path fill="#fff" d="M23.997 8.387a1.93 1.93 0 0 1 1.144-.349 1.9 1.9 0 0 1 1.136.362c.304.23.48.542.491.87s-.143.647-.43.889l-8.728 8.42c-.15.125-.332.225-.533.295a2.08 2.08 0 0 1-1.284.018 1.7 1.7 0 0 1-.546-.279L9.46 14.148a1.3 1.3 0 0 1-.38-.41 1.03 1.03 0 0 1-.142-.494 1 1 0 0 1 .12-.496c.082-.157.204-.3.36-.42a1.7 1.7 0 0 1 .546-.28 2.07 2.07 0 0 1 1.282.018 1.7 1.7 0 0 1 .533.293l4.58 3.532 7.598-7.467.043-.037z"/>
</svg>
