<svg xmlns="http://www.w3.org/2000/svg" fill="none" viewBox="0 0 745 256">
  <path stroke="#34C759" stroke-width="3.811" d="M2 192c.8-33.263 11.754-94.95 49.173-75.597 46.775 24.191 75.56 69.045 97.148 27.719s38.379-70.053 87.553-38.302 71.961-.504 96.547-27.215c24.587-26.711 47.974-45.358 89.952-6.552 41.977 38.807 50.972 30.239 80.956-3.527 29.984-33.767 32.982-72.573 98.947-33.263 65.964 39.31 92.949 45.862 112.739 7.055C730.846 11.273 739.601 2.504 742 2"/>
  <path stroke="#3555F9" stroke-width="3.811" d="M2 255c5.795-17.632 29.736-50.441 79.136-40.617 61.75 12.279 82.133 4.251 109.112-23.142s80.934-32.589 109.111-11.335 94.724 24.559 123.5-18.42c28.777-42.979 52.757-44.868 112.709-19.364 59.951 25.504 78.536 4.722 93.524-9.446 14.988-14.169 26.379-21.726 65.947-18.42C726.693 116.901 740.202 89.854 743 76"/>
  <path stroke="#F97C35" stroke-width="3.811" d="M3 116.864c12.174-20.531 45.86-49.275 83.22 0 46.699 61.593 50.982 121.34 121.537 102.655 66.457-17.599 18.56-132.719 85.016-144.45 23.35-2.2 43.826 7.039 73.043 55.727 36.521 60.859 80.433-12.37 93.398-46.196 13.77-35.929 47.896-38.129 91.003 13.932s82.022-21.264 88.009-56.46C644.214 6.876 692.709-6.323 743 52.337"/>
</svg>
