<svg xmlns="http://www.w3.org/2000/svg" fill="none" viewBox="0 0 23 23">
  <path fill="#34C759" d="M19.056 6.431a2.62 2.62 0 1 0 0-5.24 2.62 2.62 0 0 0 0 5.24"/>
  <path fill="#000" d="M18.142 7.765a4.03 4.03 0 0 1-3.04-3.039 4.2 4.2 0 0 1-.028-1.677.942.942 0 0 0-.925-1.143H6.67A4.766 4.766 0 0 0 1.906 6.67v6.621a4.766 4.766 0 0 0 4.764 4.764H8.1c.266 0 .61.172.762.381l1.429 1.896c.629.839 1.658.839 2.286 0l1.43-1.896a.95.95 0 0 1 .762-.38h1.438a4.75 4.75 0 0 0 4.755-4.755V8.718a.95.95 0 0 0-1.143-.924 4.3 4.3 0 0 1-1.677-.029m-10.52 3.669a.95.95 0 0 1-.952-.953.95.95 0 0 1 .953-.953c.524 0 .953.429.953.953a.95.95 0 0 1-.953.953zm3.812 0a.95.95 0 0 1-.953-.953.95.95 0 0 1 .953-.953c.524 0 .953.429.953.953a.95.95 0 0 1-.953.953m3.811 0a.95.95 0 0 1-.953-.953.95.95 0 0 1 .953-.953c.524 0 .953.429.953.953a.95.95 0 0 1-.953.953"/>
</svg>
