<svg xmlns="http://www.w3.org/2000/svg" fill="none" viewBox="0 0 38 39">
  <path fill="#7ED956" d="M37.67 19.13c0-3.783-1.104-7.482-3.174-10.628a18.9 18.9 0 0 0-8.453-7.046A18.57 18.57 0 0 0 15.161.368a18.75 18.75 0 0 0-9.644 5.235 19.23 19.23 0 0 0-5.155 9.795 19.4 19.4 0 0 0 1.072 11.053 19.07 19.07 0 0 0 6.937 8.586 18.63 18.63 0 0 0 10.464 3.224c4.996 0 9.786-2.016 13.319-5.603 3.532-3.588 5.516-8.454 5.516-13.528"/>
  <path fill="#FAF9F4" d="M29.768 13.395a9.2 9.2 0 0 1-2.424.627 4.57 4.57 0 0 0 1.951-2.351.075.075 0 0 0-.024-.083.07.07 0 0 0-.085-.003 8.7 8.7 0 0 1-2.74 1.01 4.6 4.6 0 0 0-1.526-1.069 4.6 4.6 0 0 0-1.818-.372 4.5 4.5 0 0 0-1.74.338 4.5 4.5 0 0 0-1.48.989 4.6 4.6 0 0 0-.994 1.49 4.67 4.67 0 0 0-.247 2.797 12.9 12.9 0 0 1-5.195-1.37 13.1 13.1 0 0 1-4.21-3.382 4.5 4.5 0 0 0-.606 2.265 4.64 4.64 0 0 0 .535 2.087c.34.642.825 1.193 1.416 1.606a4.5 4.5 0 0 1-1.94-.554c.026.57.132 1.134.316 1.674a4.7 4.7 0 0 0 1.326 1.847 4.6 4.6 0 0 0 2.032.985 5 5 0 0 1-1.213.16q-.409 0-.812-.074a4.64 4.64 0 0 0 1.614 2.236c.75.56 1.65.876 2.58.903a9.15 9.15 0 0 1-5.624 1.92 8 8 0 0 1-1.09-.073 12.9 12.9 0 0 0 7.017 2.068 12.6 12.6 0 0 0 8.57-3.152A13.5 13.5 0 0 0 27.5 18.8c.205-.905.31-1.83.315-2.758v-.59a9 9 0 0 0 2.146-2.167.11.11 0 0 0-.151-.043.1.1 0 0 0-.053.068.12.12 0 0 0 .01.086z"/>
</svg>
